<svg xmlns="http://www.w3.org/2000/svg" viewBox="0 0 25.468 25.468">
  <path d="M19.417 16.694c-.096 0-.188.02-.282.028.096-.59.16-.658.172-1.28.006-.051.016-.101.019-.154-.149-3.101-3.876-4.877-8.076-4.915-4.203.036-7.929 1.813-8.079 4.914.003.058.016.112.019.168v-.002c.125 5.557 3.681 10.015 8.06 10.015 2.397 0 4.543-1.344 6.019-3.465.526.599 1.289.98 2.149.98 1.588 0 2.878-1.823 2.878-3.412-.001-1.589-1.29-2.877-2.879-2.877zm-2.952.739c-1.289.735-3.167 1.224-5.253 1.22-2.088.004-3.967-.485-5.257-1.22-1.309-.744-1.926-1.656-1.916-2.463-.011-.814.609-1.726 1.916-2.469 1.291-.736 3.17-1.222 5.257-1.22 2.085-.003 3.964.484 5.253 1.22 1.309.743 1.929 1.655 1.918 2.469.01.805-.609 1.719-1.918 2.463zm2.952 3.99c-.61-.001-1.101-.424-1.251-.985.208-.451.392-1.46.548-1.951.206-.132.438-.231.702-.234.724.003 1.314.592 1.317 1.318-.002.729-.591 1.851-1.316 1.852zm-4.713-7.629c.001-.035 0-.069-.004-.101-.059-.454-.276-.771-.662-.97-.382-.197-.937-.274-1.654-.231-1.557.095-4.638 1.85-5.65 2.506.958.728 3.896 2.307 5.453 2.525.711.1 1.271.066 1.667-.099.398-.169.64-.469.735-.914.008-.033.012-.067.012-.101.017-.41-.303-.835-.812-1.086l-.568-.276.587-.235c.529-.21.881-.609.896-1.018zm-1.832 1.06l-.404.161.39.191c.351.171.571.464.559.745-.001.024-.003.048-.008.071-.067.307-.233.513-.507.629-.272.114-.657.137-1.145.069-1.072-.15-3.201-1.179-3.86-1.679.695-.451 2.924-1.716 3.995-1.781.493-.029.874.024 1.137.16.264.136.414.353.454.667.004.021.004.046.004.069-.011.28-.251.555-.615.698zM9.444 7.298c-.109-.35-.039-.787.2-1.095.236-.307.56-.494.879-.638.172-.069.306-.12.447-.191.14-.071.27-.153.386-.244.236-.182.378-.43.363-.715-.017-.285-.166-.58-.35-.844-.006-.011-.016-.019-.022-.029-.003.002-.005.005-.006.007-.17.138-.391.174-.533-.009-.056-.071-.111-.14-.165-.21-.252-.326-.5-.662-.684-1.032-.208-.413-.36-.891-.22-1.347.167-.553.809-1.119 1.417-.904.352.125.61.434.799.762.273-.191.593-.344.92-.273.333.073.423.434.43.724.008.352-.121.718-.283 1.026-.205.389-.502.716-.876.947-.172.106-.423.055-.462-.165-.043-.239.129-.452.317-.573.003-.002.007-.005.01-.007.001 0 .001 0 .002-.001.023-.014.046-.032.011-.009.001-.001.002-.001.003-.002.032-.023.063-.048.092-.074.004-.005.01-.01.015-.015.02-.021.04-.044.058-.066.026-.03.05-.061.073-.092.038-.059.073-.12.104-.182l.025-.05c.009-.02.021-.053.027-.067.021-.064.043-.128.058-.192.002-.006.004-.013.005-.019.004-.024.008-.049.011-.072.004-.04.007-.079.008-.12-.002-.016-.003-.035-.004-.045-.004-.022-.007-.043-.012-.065-.002 0-.002-.002-.004-.003-.006-.011-.012-.022-.019-.034-.004-.003-.007-.006-.01-.008-.003-.001-.005-.002-.007-.004-.009.002-.019.002-.027.003-.006.001-.013.003-.021.006l-.021.006c-.026.012-.05.024-.075.038-.023.012-.089.056-.092.057-.015.011-.031.021-.045.033-.089.066-.174.138-.254.213-.128.116-.438.201-.531-.01-.087-.195-.193-.386-.323-.555-.01-.012-.022-.026-.025-.031-.019-.021-.037-.041-.056-.06-.038-.038-.077-.076-.12-.109-.02-.016-.041-.031-.063-.045-.007-.005-.026-.014-.036-.021-.035-.015-.068-.027-.105-.036h-.001c-.017 0-.032-.001-.049 0-.008 0-.015.002-.019.004-.003 0-.005.001-.007.002-.015.008-.034.02-.041.024-.005.004-.01.009-.015.015-.005.003-.008.01-.012.017-.003.009-.007.02-.011.03-.003.025-.008.062-.009.078 0 .014-.001.027-.001.041v.009c.01.093.027.182.054.272.003.015.008.028.012.042.005.012.009.026.012.032.018.047.037.095.058.141.086.19.19.373.303.549.188.29.4.561.613.832.058.075.038.216.012.298-.019.058-.047.112-.081.162.016.015.035.027.05.043.23.252.447.551.505.935.073.393-.148.801-.428 1.033-.273.242-.626.397-.919.514-.288.122-.559.284-.739.504-.187.216-.247.5-.194.796.053.297.197.592.369.866.17.28.383.537.604.788-.538-.387-1.062-.877-1.275-1.586zm2.58-4.82c-.005.003-.009.006-.013.009-.001 0-.001.001-.002.001.015-.01.008-.005.015-.01zm.273 1.502c-.078.259.006.529.123.76.104.207.243.398.385.581.03.04.061.079.092.118.075.097.186.083.278.019.019.027.042.051.058.079.143.21.253.445.262.663.007.215-.099.396-.283.536-.09.07-.191.134-.3.189-.112.056-.214.093-.354.151-.257.118-.521.268-.715.523-.196.253-.252.617-.159.902.178.577.607.958 1.048 1.258-.34-.406-.657-.861-.747-1.326-.096-.471.27-.807.731-.991.229-.094.519-.221.74-.417.228-.191.412-.532.348-.856-.05-.316-.231-.557-.42-.755-.029-.029-.064-.054-.096-.082.011-.019.022-.036.029-.056.014-.047.026-.127-.007-.168-.12-.153-.239-.306-.345-.468-.065-.099-.123-.203-.171-.31-.011-.026-.023-.052-.033-.08-.002-.004-.004-.011-.006-.018-.002-.008-.004-.016-.007-.023-.014-.05-.025-.101-.03-.154-.002-.002-.002-.004-.002-.005 0-.009 0-.016.001-.024 0-.009.003-.028.005-.044.003-.004.004-.011.006-.016.003-.005.005-.008.006-.012.004-.002.006-.004.01-.008.004-.001.015-.009.023-.013.001 0 .003-.002.004-.002.004-.002.007-.002.012-.002h.028c.02.004.04.012.058.021.006.003.017.008.021.011.012.009.023.017.035.025.024.019.046.04.066.06.012.012.021.024.033.035.002.003.009.011.015.018.073.095.132.203.182.313.052.119.228.071.299.005.047-.043.093-.083.143-.12.008-.007.017-.013.026-.019.002-.002.039-.025.052-.032.014-.008.028-.014.043-.021.004-.001.009-.003.011-.004.004-.001.009-.001.013-.003.005 0 .01-.002.015-.002.002 0 .003.002.004.002.002.002.004.003.005.004.003.006.007.014.01.019l.001.002c.004.012.004.024.006.036.002.006.003.018.004.027-.001.02-.003.043-.005.066 0 .013-.003.027-.005.042-.001.002-.002.006-.002.01-.008.037-.02.073-.034.109-.003.009-.011.027-.015.039-.005.009-.009.019-.014.027-.019.035-.037.069-.058.103-.012.018-.027.035-.04.051-.012.013-.022.025-.035.038-.003.004-.006.005-.009.008-.016.015-.034.029-.052.042-.004.004-.009.007-.014.012-.106.066-.203.187-.179.322.022.123.164.151.26.092.211-.129.377-.314.493-.534.092-.172.165-.379.159-.577-.003-.164-.054-.367-.241-.407-.183-.04-.364.045-.518.152-.106-.185-.252-.358-.45-.428-.341-.122-.701.197-.797.507zm1.28.867c-.001.001-.002.001-.003.002.049-.035.019-.012.003-.002z" fill="#010002"/>
</svg>
